<?xml version="1.0" encoding="utf-8"?>
<!-- Generator: Adobe Illustrator 21.0.0, SVG Export Plug-In . SVG Version: 6.00 Build 0)  -->
<svg version="1.1" id="Layer_1" xmlns="http://www.w3.org/2000/svg" xmlns:xlink="http://www.w3.org/1999/xlink" x="0px" y="0px"
	 viewBox="0 0 24 24" style="enable-background:new 0 0 24 24;" xml:space="preserve">
<path d="M3,4C1.9,4,1,4.9,1,6v12c0,1.1,0.9,2,2,2h11.1C14,19.5,14,19.1,14,18.6c0.2-2.9,2.6-5.3,5.5-5.5c0.5,0,1,0,1.4,0.1V6
	c0-1.1-0.9-2-2-2H3 M3,6l8,5l8-5v2l-8,5L3,8V6 M16.2,17.3l2.4,1.8l-1.8,2.4l1.6,1.2l1.8-2.4l2.4,1.8l1.2-1.6l-2.4-1.8l1.8-2.4
	l-1.6-1.2l-1.8,2.4l-2.4-1.8L16.2,17.3z"/>
</svg>
